<svg xmlns="http://www.w3.org/2000/svg" viewBox="0 0 1024 1024">
  <path fill="currentColor" d="
M 996 108
L 919 163
L 815 229
L 749 259
L 725 264
L 712 263
L 697 255
L 679 237
L 643 182
L 608 109
L 564 0
L 491 216
L 470 262
L 457 277
L 413 283
L 366 283
L 281 275
L 144 250
L 0 215
L 97 318
L 164 397
L 206 460
L 221 499
L 212 511
L 225 529
L 225 538
L 217 554
L 198 575
L 132 623
L 0 699
L 106 717
L 167 732
L 227 756
L 248 774
L 248 801
L 233 842
L 193 915
L 126 1023
L 226 979
L 308 951
L 383 935
L 430 931
L 457 932
L 483 879
L 490 882
L 529 881
L 562 893
L 579 905
L 602 928
L 629 964
L 646 930
L 697 864
L 744 822
L 785 795
L 832 778
L 902 777
L 942 784
L 905 719
L 882 656
L 881 622
L 895 590
L 922 561
L 1023 586
L 949 540
L 921 510
L 922 492
L 936 472
L 970 441
L 952 438
L 943 431
L 940 419
L 944 375
L 959 274
L 996 108
Z"/>
</svg>